solid imagingWell2_V11
facet normal -0.6082147840421491 -0.7926409387008628 -0.042368841947552895
  outer loop
    vertex 3.9858907334355442 4.98589073343555 4.499999999999999
    vertex 3.320937500000003 5.736664692968189 0.0
    vertex 4.694184901005053 4.682934901005049 0.0
  endloop
endfacet
facet normal -0.7905764415177311 -0.6066306396369237 -0.08359519825240298
  outer loop
    vertex 3.9858907334355442 4.98589073343555 4.499999999999999
    vertex 4.694184901005053 4.682934901005049 0.0
    vertex 5.747914692968195 3.3096874999999932 0.0
  endloop
endfacet
facet normal -0.7458978679771243 -0.09819931726430232 -0.6587816517147432
  outer loop
    vertex 6.410316931937952 1.7105070309328956 0.0
    vertex 6.636249999999999 -0.005625000000002065 0.0
    vertex 3.985890733435544 5.639932965095795e-15 3.0
  endloop
endfacet
facet normal -0.7457169324225472 0.09817549664664056 -0.6589900064162519
  outer loop
    vertex 3.985890733435544 5.639932965095795e-15 3.0
    vertex 6.636249999999999 -0.005625000000002065 0.0
    vertex 6.410316931937949 -1.721757030932907 0.0
  endloop
endfacet
facet normal -0.664395235776757 0.2752015174348028 -0.6948691211147101
  outer loop
    vertex 6.410316931937949 -1.721757030932907 0.0
    vertex 5.74791469296819 -3.320937500000003 0.0
    vertex 3.985890733435544 5.639932965095795e-15 3.0
  endloop
endfacet
facet normal -0.7904753236440265 0.6065530491634656 -0.08510088871671209
  outer loop
    vertex 5.74791469296819 -3.320937500000003 0.0
    vertex 4.694184901005047 -4.694184901005054 0.0
    vertex 3.985890733435544 -4.985890733435536 4.499999999999999
  endloop
endfacet
facet normal -0.6081625320069333 0.7925728425227879 -0.04434663412553549
  outer loop
    vertex 3.985890733435544 -4.985890733435536 4.499999999999999
    vertex 4.694184901005047 -4.694184901005054 0.0
    vertex 3.320937499999999 -5.747914692968193 0.0
  endloop
endfacet
facet normal -0.664871838046628 -0.2753989325588404 -0.6943348377533349
  outer loop
    vertex 6.410316931937952 1.7105070309328956 0.0
    vertex 3.985890733435544 5.639932965095795e-15 3.0
    vertex 5.747914692968195 3.3096874999999932 0.0
  endloop
endfacet
facet normal -0.38078800091345255 0.9193035561941978 -0.09940558298726626
  outer loop
    vertex 3.985890733435544 -4.985890733435536 4.499999999999999
    vertex 3.320937499999999 -5.747914692968193 0.0
    vertex 1.7217570309328993 -6.410316931937952 0.0
  endloop
endfacet
facet normal -0.11991778580744303 0.9108660147357777 -0.39489597091690193
  outer loop
    vertex -0.6308753751181391 -4.985890733435536 3.9999999999999996
    vertex 1.7217570309328993 -6.410316931937952 0.0
    vertex 0.005625000000000016 -6.636249999999999 0.0
  endloop
endfacet
facet normal 0.1216756175992984 0.9242180727982372 -0.36196132113105906
  outer loop
    vertex -0.6308753751181391 -4.985890733435536 3.9999999999999996
    vertex 0.005625000000000016 -6.636249999999999 0.0
    vertex -1.7105070309329007 -6.410316931937951 0.0
  endloop
endfacet
facet normal 0.5609777068823736 0.7203442273050503 -0.40793161996746935
  outer loop
    vertex -0.6308753751181391 -4.985890733435536 3.9999999999999996
    vertex -1.7105070309329007 -6.410316931937951 0.0
    vertex -3.5583830542768418 -3.2723559010882157 3.0
  endloop
endfacet
facet normal 0.30899293040976306 0.7459749232726562 -0.5899532039112442
  outer loop
    vertex -3.5583830542768418 -3.2723559010882157 3.0
    vertex -1.7105070309329007 -6.410316931937951 0.0
    vertex -3.309687500000001 -5.747914692968191 0.0
  endloop
endfacet
facet normal 0.5210409443029347 0.6790337789047253 -0.5171358249689099
  outer loop
    vertex -3.5583830542768418 -3.2723559010882157 3.0
    vertex -3.309687500000001 -5.747914692968191 0.0
    vertex -4.6829349010050505 -4.69418490100505 0.0
  endloop
endfacet
facet normal 0.6484080240711206 0.5646224434154743 -0.5106550016515304
  outer loop
    vertex -5.485890733435545 -1.0588210687408945 3.0
    vertex -3.5583830542768418 -3.2723559010882157 3.0
    vertex -4.6829349010050505 -4.69418490100505 0.0
  endloop
endfacet
facet normal 0.7023329990471325 0.5389190647170649 -0.4650748328322495
  outer loop
    vertex -5.485890733435545 -1.0588210687408945 3.0
    vertex -4.6829349010050505 -4.69418490100505 0.0
    vertex -5.7366646929681915 -3.320937499999999 0.0
  endloop
endfacet
facet normal 0.8676551904241872 0.359394547337108 -0.3435258794826421
  outer loop
    vertex -5.485890733435545 -1.0588210687408945 3.0
    vertex -5.7366646929681915 -3.320937499999999 0.0
    vertex -6.399066931937949 -1.7217570309329013 0.0
  endloop
endfacet
facet normal 0.9413274020199885 0.12392810352338617 -0.3139180583582217
  outer loop
    vertex -6.6249999999999964 -0.005625000000000434 0.0
    vertex -5.485890733435545 -1.0588210687408945 3.0
    vertex -6.399066931937949 -1.7217570309329013 0.0
  endloop
endfacet
facet normal 0.9348757183864125 -2.5051052187973246e-15 -0.3549751979666879
  outer loop
    vertex -5.4858907334355385 1.0588210687408846 3.0
    vertex -5.485890733435545 -1.0588210687408945 3.0
    vertex -6.6249999999999964 -0.005625000000000434 0.0
  endloop
endfacet
facet normal 0.9414646580595718 -0.12394617362380629 -0.31349903296308695
  outer loop
    vertex -6.399066931937949 1.7105070309329007 0.0
    vertex -5.4858907334355385 1.0588210687408846 3.0
    vertex -6.6249999999999964 -0.005625000000000434 0.0
  endloop
endfacet
facet normal -0.38087401912853813 -0.9195112225356685 -0.09712926018370888
  outer loop
    vertex 3.9858907334355442 4.98589073343555 4.499999999999999
    vertex 1.7217570309329073 6.399066931937947 0.0
    vertex 3.320937500000003 5.736664692968189 0.0
  endloop
endfacet
facet normal 0.03411724957533539 -0.9484707149954156 -0.31502272311295154
  outer loop
    vertex 3.9858907334355442 4.98589073343555 4.499999999999999
    vertex -0.6308753751181292 4.98589073343555 3.9999999999999996
    vertex 1.7217570309329073 6.399066931937947 0.0
  endloop
endfacet
facet normal -0.12003889018551403 -0.9117858938135757 -0.3927303765761052
  outer loop
    vertex -0.6308753751181292 4.98589073343555 3.9999999999999996
    vertex 0.005625000000000809 6.624999999999995 0.0
    vertex 1.7217570309329073 6.399066931937947 0.0
  endloop
endfacet
facet normal 0.12178984801195895 -0.9250857389250076 -0.35969933077335114
  outer loop
    vertex -0.6308753751181292 4.98589073343555 3.9999999999999996
    vertex -1.710507030932899 6.3990669319379485 0.0
    vertex 0.005625000000000809 6.624999999999995 0.0
  endloop
endfacet
facet normal 0.5217267251092232 -0.6799275058516893 -0.5152667378097545
  outer loop
    vertex -3.558383054276834 3.272355901088218 3.0
    vertex -4.68293490100505 4.6829349010050505 0.0
    vertex -3.309687499999998 5.7366646929681915 0.0
  endloop
endfacet
facet normal 0.8680563875073831 -0.35956072861015204 -0.3423363704734988
  outer loop
    vertex -5.736664692968191 3.3096874999999994 0.0
    vertex -5.4858907334355385 1.0588210687408846 3.0
    vertex -6.399066931937949 1.7105070309329007 0.0
  endloop
endfacet
facet normal 0.7029926095844746 -0.5394252016839236 -0.4634887729577371
  outer loop
    vertex -4.68293490100505 4.6829349010050505 0.0
    vertex -5.4858907334355385 1.0588210687408846 3.0
    vertex -5.736664692968191 3.3096874999999994 0.0
  endloop
endfacet
facet normal 0.6491087814402704 -0.5652326507591846 -0.5090872620414629
  outer loop
    vertex -4.68293490100505 4.6829349010050505 0.0
    vertex -3.558383054276834 3.272355901088218 3.0
    vertex -5.4858907334355385 1.0588210687408846 3.0
  endloop
endfacet
facet normal 0.034361286972482405 0.9477105095308622 -0.3172760502816882
  outer loop
    vertex 3.985890733435544 -4.985890733435536 4.499999999999999
    vertex 1.7217570309328993 -6.410316931937952 0.0
    vertex -0.6308753751181391 -4.985890733435536 3.9999999999999996
  endloop
endfacet
facet normal 0.6348749113016121 0.083582867728435 0.7680805629763463
  outer loop
    vertex 7.9220000000000015 0.038050000000000465 0.0
    vertex 7.6507678735522955 2.0982625399683177 0.0
    vertex 4.297567344290917 5.639932965095795e-15 2.9999999999999982
  endloop
endfacet
facet normal 0.563215487667392 0.23329149353040934 0.7926937577008745
  outer loop
    vertex 7.6507678735522955 2.0982625399683177 0.0
    vertex 6.855555515394322 4.018074999999995 0.0
    vertex 4.297567344290917 5.639932965095795e-15 2.9999999999999982
  endloop
endfacet
facet normal 0.6359099027714891 -0.08371912694042673 0.7672090349712313
  outer loop
    vertex 7.9220000000000015 0.038050000000000465 0.0
    vertex 4.297567344290917 5.639932965095795e-15 2.9999999999999982
    vertex 7.650767873552293 -2.0221625399683254 0.0
  endloop
endfacet
facet normal 0.5658662808056716 -0.2343894879993322 0.790478918227784
  outer loop
    vertex 7.650767873552293 -2.0221625399683254 0.0
    vertex 4.297567344290917 5.639932965095795e-15 2.9999999999999982
    vertex 6.8555555153943155 -3.941974999999999 0.0
  endloop
endfacet
facet normal 0.7698341925382076 -0.5907145522035586 0.24168498880566705
  outer loop
    vertex 6.8555555153943155 -3.941974999999999 0.0
    vertex 4.297567344290917 -5.434479806779092 4.499999999999998
    vertex 5.590555333583971 -5.590555333583977 0.0
  endloop
endfacet
facet normal 0.5966590033260526 -0.7775811520686572 0.19840762509929247
  outer loop
    vertex 4.297567344290917 -5.434479806779092 4.499999999999998
    vertex 3.9419749999999936 -6.855555515394319 0.0
    vertex 5.590555333583971 -5.590555333583977 0.0
  endloop
endfacet
facet normal 0.3702325456425611 -0.8938204329221904 0.25300769916707494
  outer loop
    vertex 4.297567344290917 -5.434479806779092 4.499999999999998
    vertex 2.022162539968315 -7.650767873552293 0.0
    vertex 3.9419749999999936 -6.855555515394319 0.0
  endloop
endfacet
facet normal -0.04669314929958701 -0.886561101247993 0.4602490234236596
  outer loop
    vertex 4.297567344290917 -5.434479806779092 4.499999999999998
    vertex -0.6308753751181408 -5.434479806779092 3.9999999999999982
    vertex 2.022162539968315 -7.650767873552293 0.0
  endloop
endfacet
facet normal 0.11014281674038622 -0.836617753242905 0.5365997529623804
  outer loop
    vertex -0.6308753751181408 -5.434479806779092 3.9999999999999982
    vertex -0.03805000000000298 -7.921999999999999 0.0
    vertex 2.022162539968315 -7.650767873552293 0.0
  endloop
endfacet
facet normal -0.1120627415972945 -0.8512010303708873 0.5127365286784606
  outer loop
    vertex -0.6308753751181408 -5.434479806779092 3.9999999999999982
    vertex -2.0982625399683252 -7.650767873552291 0.0
    vertex -0.03805000000000298 -7.921999999999999 0.0
  endloop
endfacet
facet normal -0.5481096179340873 -0.6300130720752641 0.5501448679597376
  outer loop
    vertex -0.6308753751181408 -5.434479806779092 3.9999999999999982
    vertex -3.8011338221927153 -3.5495914911970368 2.9999999999999982
    vertex -2.0982625399683252 -7.650767873552291 0.0
  endloop
endfacet
facet normal -0.26447679587964223 -0.6385034675456156 0.7227484668772831
  outer loop
    vertex -2.0982625399683252 -7.650767873552291 0.0
    vertex -3.8011338221927153 -3.5495914911970368 2.9999999999999982
    vertex -4.018075000000005 -6.855555515394316 0.0
  endloop
endfacet
facet normal -0.4483887845558677 -0.5843516409306339 0.6763731644781507
  outer loop
    vertex -3.8011338221927153 -3.5495914911970368 2.9999999999999982
    vertex -5.666655333583977 -5.590555333583974 0.0
    vertex -4.018075000000005 -6.855555515394316 0.0
  endloop
endfacet
facet normal -0.5448940617578567 -0.49585589923197226 0.6761785183351192
  outer loop
    vertex -3.8011338221927153 -3.5495914911970368 2.9999999999999982
    vertex -5.971392269267287 -1.1647031756149848 2.9999999999999982
    vertex -5.666655333583977 -5.590555333583974 0.0
  endloop
endfacet
facet normal -0.6142243966734925 -0.4713109562426665 0.632925250765608
  outer loop
    vertex -5.666655333583977 -5.590555333583974 0.0
    vertex -5.971392269267287 -1.1647031756149848 2.9999999999999982
    vertex -6.931655515394326 -3.9419749999999936 0.0
  endloop
endfacet
facet normal -0.7746228461783927 -0.3208592886111352 0.5449851035491177
  outer loop
    vertex -5.971392269267287 -1.1647031756149848 2.9999999999999982
    vertex -7.726867873552295 -2.0221625399683165 0.0
    vertex -6.931655515394326 -3.9419749999999936 0.0
  endloop
endfacet
facet normal -0.8435900754257608 -0.11106074036974362 0.5253772897563078
  outer loop
    vertex -7.998100000000003 0.03805000000000245 0.0
    vertex -7.726867873552295 -2.0221625399683165 0.0
    vertex -5.971392269267287 -1.1647031756149848 2.9999999999999982
  endloop
endfacet
facet normal -0.828629878392445 2.0145142476918156e-15 0.5597968601513605
  outer loop
    vertex -5.971392269267281 1.164703175614973 2.9999999999999982
    vertex -7.998100000000003 0.03805000000000245 0.0
    vertex -5.971392269267287 -1.1647031756149848 2.9999999999999982
  endloop
endfacet
facet normal -0.8423408980847898 0.11089628305287501 0.5274123868651233
  outer loop
    vertex -7.726867873552295 2.0982625399683243 0.0
    vertex -7.998100000000003 0.03805000000000245 0.0
    vertex -5.971392269267281 1.164703175614973 2.9999999999999982
  endloop
endfacet
facet normal -0.771184223001339 0.31943496425530965 0.550668864023589
  outer loop
    vertex -6.931655515394325 4.018075000000002 0.0
    vertex -7.726867873552295 2.0982625399683243 0.0
    vertex -5.971392269267281 1.164703175614973 2.9999999999999982
  endloop
endfacet
facet normal -0.6095857483071416 0.46775159616342366 0.640010671588679
  outer loop
    vertex -5.666655333583974 5.666655333583974 0.0
    vertex -6.931655515394325 4.018075000000002 0.0
    vertex -5.971392269267281 1.164703175614973 2.9999999999999982
  endloop
endfacet
facet normal -0.5402759501616237 0.4916533981606312 0.682919346448802
  outer loop
    vertex -3.801133822192704 3.5495914911970408 2.9999999999999982
    vertex -5.666655333583974 5.666655333583974 0.0
    vertex -5.971392269267281 1.164703175614973 2.9999999999999982
  endloop
endfacet
facet normal -0.4439119660842476 0.578517337508811 0.6842951531093396
  outer loop
    vertex -3.801133822192704 3.5495914911970408 2.9999999999999982
    vertex -4.018075000000004 6.931655515394325 0.0
    vertex -5.666655333583974 5.666655333583974 0.0
  endloop
endfacet
facet normal -0.26140061608178017 0.631076912557322 0.7303503599979834
  outer loop
    vertex -2.0982625399683226 7.726867873552295 0.0
    vertex -4.018075000000004 6.931655515394325 0.0
    vertex -3.801133822192704 3.5495914911970408 2.9999999999999982
  endloop
endfacet
facet normal -0.5469956719638893 0.6238662299380473 0.5581994822602944
  outer loop
    vertex -0.6308753751181296 5.4344798067791045 3.9999999999999982
    vertex -2.0982625399683226 7.726867873552295 0.0
    vertex -3.801133822192704 3.5495914911970408 2.9999999999999982
  endloop
endfacet
facet normal 0.1092003845731693 0.829459270232804 0.5477888233926795
  outer loop
    vertex -0.6308753751181296 5.4344798067791045 3.9999999999999982
    vertex 2.0221625399683267 7.726867873552293 0.0
    vertex -0.038050000000001964 7.998100000000001 0.0
  endloop
endfacet
facet normal -0.04793944178830932 0.8800078524074236 0.47253358570825393
  outer loop
    vertex 4.2975673442909175 5.4344798067791045 4.499999999999998
    vertex 2.0221625399683267 7.726867873552293 0.0
    vertex -0.6308753751181296 5.4344798067791045 3.9999999999999982
  endloop
endfacet
facet normal 0.36878291518850986 0.8903207154195876 0.26707337036817896
  outer loop
    vertex 4.2975673442909175 5.4344798067791045 4.499999999999998
    vertex 3.941974999999999 6.9316555153943185 0.0
    vertex 2.0221625399683267 7.726867873552293 0.0
  endloop
endfacet
facet normal 0.7679441180653326 0.5892642470512325 0.2510567240206934
  outer loop
    vertex 5.590555333583975 5.666655333583973 0.0
    vertex 4.2975673442909175 5.4344798067791045 4.499999999999998
    vertex 6.855555515394322 4.018074999999995 0.0
  endloop
endfacet
facet normal 0.5950571997987635 0.7754936410695853 0.21098943487362617
  outer loop
    vertex 4.2975673442909175 5.4344798067791045 4.499999999999998
    vertex 5.590555333583975 5.666655333583973 0.0
    vertex 3.941974999999999 6.9316555153943185 0.0
  endloop
endfacet
facet normal 0.5609649123338234 -0.7213080058584858 -0.4062426957063483
  outer loop
    vertex -0.6308753751181292 4.98589073343555 3.9999999999999996
    vertex -3.558383054276834 3.272355901088218 3.0
    vertex -1.710507030932899 6.3990669319379485 0.0
  endloop
endfacet
facet normal 0.30950292421070685 -0.7472061572236237 -0.5881249004353809
  outer loop
    vertex -3.558383054276834 3.272355901088218 3.0
    vertex -3.309687499999998 5.7366646929681915 0.0
    vertex -1.710507030932899 6.3990669319379485 0.0
  endloop
endfacet
facet normal 0.0 0.0 -1.0
  outer loop
    vertex -6.931655515394325 4.018075000000002 0.0
    vertex -6.399066931937949 1.7105070309329007 0.0
    vertex -6.6249999999999964 -0.005625000000000434 0.0
  endloop
endfacet
facet normal 0.0 0.0 -1.0
  outer loop
    vertex -6.399066931937949 1.7105070309329007 0.0
    vertex -6.931655515394325 4.018075000000002 0.0
    vertex -5.666655333583974 5.666655333583974 0.0
  endloop
endfacet
facet normal 0.0 0.0 -1.0
  outer loop
    vertex -6.399066931937949 1.7105070309329007 0.0
    vertex -5.666655333583974 5.666655333583974 0.0
    vertex -5.736664692968191 3.3096874999999994 0.0
  endloop
endfacet
facet normal 0.0 0.0 -1.0
  outer loop
    vertex -5.736664692968191 3.3096874999999994 0.0
    vertex -5.666655333583974 5.666655333583974 0.0
    vertex -4.68293490100505 4.6829349010050505 0.0
  endloop
endfacet
facet normal 0.0 0.0 -1.0
  outer loop
    vertex -4.68293490100505 4.6829349010050505 0.0
    vertex -5.666655333583974 5.666655333583974 0.0
    vertex -4.018075000000004 6.931655515394325 0.0
  endloop
endfacet
facet normal 0.0 0.0 -1.0
  outer loop
    vertex -4.68293490100505 4.6829349010050505 0.0
    vertex -4.018075000000004 6.931655515394325 0.0
    vertex -3.309687499999998 5.7366646929681915 0.0
  endloop
endfacet
facet normal 0.0 0.0 -1.0
  outer loop
    vertex -3.309687499999998 5.7366646929681915 0.0
    vertex -4.018075000000004 6.931655515394325 0.0
    vertex -2.0982625399683226 7.726867873552295 0.0
  endloop
endfacet
facet normal 0.0 0.0 -1.0
  outer loop
    vertex -3.309687499999998 5.7366646929681915 0.0
    vertex -2.0982625399683226 7.726867873552295 0.0
    vertex -1.710507030932899 6.3990669319379485 0.0
  endloop
endfacet
facet normal 0.0 0.0 -1.0
  outer loop
    vertex -1.710507030932899 6.3990669319379485 0.0
    vertex -2.0982625399683226 7.726867873552295 0.0
    vertex -1.0681562699841618 7.862483936776146 0.0
  endloop
endfacet
facet normal 0.0 0.0 -1.0
  outer loop
    vertex -1.710507030932899 6.3990669319379485 0.0
    vertex -1.0681562699841618 7.862483936776146 0.0
    vertex 0.005625000000000809 6.624999999999995 0.0
  endloop
endfacet
facet normal 0.0 0.0 -1.0
  outer loop
    vertex 0.005625000000000809 6.624999999999995 0.0
    vertex -1.0681562699841618 7.862483936776146 0.0
    vertex -0.038050000000001964 7.998100000000001 0.0
  endloop
endfacet
facet normal 0.0 0.0 -1.0
  outer loop
    vertex 2.0221625399683267 7.726867873552293 0.0
    vertex 0.005625000000000809 6.624999999999995 0.0
    vertex -0.038050000000001964 7.998100000000001 0.0
  endloop
endfacet
facet normal 0.0 0.0 -1.0
  outer loop
    vertex 0.005625000000000809 6.624999999999995 0.0
    vertex 2.0221625399683267 7.726867873552293 0.0
    vertex 1.7217570309329073 6.399066931937947 0.0
  endloop
endfacet
facet normal 0.0 0.0 -1.0
  outer loop
    vertex 1.7217570309329073 6.399066931937947 0.0
    vertex 2.0221625399683267 7.726867873552293 0.0
    vertex 3.320937500000003 5.736664692968189 0.0
  endloop
endfacet
facet normal 0.0 0.0 -1.0
  outer loop
    vertex 3.320937500000003 5.736664692968189 0.0
    vertex 2.0221625399683267 7.726867873552293 0.0
    vertex 3.941974999999999 6.9316555153943185 0.0
  endloop
endfacet
facet normal 0.0 0.0 -1.0
  outer loop
    vertex 3.320937500000003 5.736664692968189 0.0
    vertex 3.941974999999999 6.9316555153943185 0.0
    vertex 4.694184901005053 4.682934901005049 0.0
  endloop
endfacet
facet normal 0.0 0.0 -1.0
  outer loop
    vertex 4.694184901005053 4.682934901005049 0.0
    vertex 3.941974999999999 6.9316555153943185 0.0
    vertex 5.590555333583975 5.666655333583973 0.0
  endloop
endfacet
facet normal 0.0 0.0 -1.0
  outer loop
    vertex 4.694184901005053 4.682934901005049 0.0
    vertex 5.590555333583975 5.666655333583973 0.0
    vertex 5.747914692968195 3.3096874999999932 0.0
  endloop
endfacet
facet normal 0.0 0.0 -1.0
  outer loop
    vertex 5.747914692968195 3.3096874999999932 0.0
    vertex 5.590555333583975 5.666655333583973 0.0
    vertex 6.855555515394322 4.018074999999995 0.0
  endloop
endfacet
facet normal 0.0 0.0 -1.0
  outer loop
    vertex 5.747914692968195 3.3096874999999932 0.0
    vertex 6.855555515394322 4.018074999999995 0.0
    vertex 6.410316931937952 1.7105070309328956 0.0
  endloop
endfacet
facet normal 0.0 0.0 -1.0
  outer loop
    vertex 6.410316931937952 1.7105070309328956 0.0
    vertex 6.855555515394322 4.018074999999995 0.0
    vertex 6.636249999999999 -0.005625000000002065 0.0
  endloop
endfacet
facet normal 0.0 0.0 -1.0
  outer loop
    vertex 6.636249999999999 -0.005625000000002065 0.0
    vertex 6.855555515394322 4.018074999999995 0.0
    vertex 6.8555555153943155 -3.941974999999999 0.0
  endloop
endfacet
facet normal 0.0 0.0 -1.0
  outer loop
    vertex 6.8555555153943155 -3.941974999999999 0.0
    vertex 6.855555515394322 4.018074999999995 0.0
    vertex 7.650767873552293 -2.0221625399683254 0.0
  endloop
endfacet
facet normal 0.0 0.0 -1.0
  outer loop
    vertex 7.650767873552293 -2.0221625399683254 0.0
    vertex 6.855555515394322 4.018074999999995 0.0
    vertex 7.6507678735522955 2.0982625399683177 0.0
  endloop
endfacet
facet normal 0.0 0.0 -1.0
  outer loop
    vertex 7.650767873552293 -2.0221625399683254 0.0
    vertex 7.6507678735522955 2.0982625399683177 0.0
    vertex 7.9220000000000015 0.038050000000000465 0.0
  endloop
endfacet
facet normal 0.0 0.0 -1.0
  outer loop
    vertex -7.726867873552295 2.0982625399683243 0.0
    vertex -7.726867873552295 -2.0221625399683165 0.0
    vertex -7.998100000000003 0.03805000000000245 0.0
  endloop
endfacet
facet normal 0.0 0.0 -1.0
  outer loop
    vertex -7.726867873552295 -2.0221625399683165 0.0
    vertex -7.726867873552295 2.0982625399683243 0.0
    vertex -6.931655515394325 4.018075000000002 0.0
  endloop
endfacet
facet normal 0.0 0.0 -1.0
  outer loop
    vertex -7.726867873552295 -2.0221625399683165 0.0
    vertex -6.931655515394325 4.018075000000002 0.0
    vertex -6.931655515394326 -3.9419749999999936 0.0
  endloop
endfacet
facet normal 0.0 0.0 -1.0
  outer loop
    vertex -6.931655515394326 -3.9419749999999936 0.0
    vertex -6.931655515394325 4.018075000000002 0.0
    vertex -6.6249999999999964 -0.005625000000000434 0.0
  endloop
endfacet
facet normal 0.0 0.0 -1.0
  outer loop
    vertex -6.931655515394326 -3.9419749999999936 0.0
    vertex -6.6249999999999964 -0.005625000000000434 0.0
    vertex -6.399066931937949 -1.7217570309329013 0.0
  endloop
endfacet
facet normal 0.0 0.0 -1.0
  outer loop
    vertex -6.931655515394326 -3.9419749999999936 0.0
    vertex -6.399066931937949 -1.7217570309329013 0.0
    vertex -5.666655333583977 -5.590555333583974 0.0
  endloop
endfacet
facet normal 0.0 0.0 -1.0
  outer loop
    vertex -5.666655333583977 -5.590555333583974 0.0
    vertex -6.399066931937949 -1.7217570309329013 0.0
    vertex -5.7366646929681915 -3.320937499999999 0.0
  endloop
endfacet
facet normal 0.0 0.0 -1.0
  outer loop
    vertex -5.666655333583977 -5.590555333583974 0.0
    vertex -5.7366646929681915 -3.320937499999999 0.0
    vertex -4.6829349010050505 -4.69418490100505 0.0
  endloop
endfacet
facet normal 0.0 0.0 -1.0
  outer loop
    vertex -5.666655333583977 -5.590555333583974 0.0
    vertex -4.6829349010050505 -4.69418490100505 0.0
    vertex -4.018075000000005 -6.855555515394316 0.0
  endloop
endfacet
facet normal 0.0 0.0 -1.0
  outer loop
    vertex -4.018075000000005 -6.855555515394316 0.0
    vertex -4.6829349010050505 -4.69418490100505 0.0
    vertex -3.309687500000001 -5.747914692968191 0.0
  endloop
endfacet
facet normal 0.0 0.0 -1.0
  outer loop
    vertex -4.018075000000005 -6.855555515394316 0.0
    vertex -3.309687500000001 -5.747914692968191 0.0
    vertex -2.0982625399683252 -7.650767873552291 0.0
  endloop
endfacet
facet normal 0.0 0.0 -1.0
  outer loop
    vertex -2.0982625399683252 -7.650767873552291 0.0
    vertex -3.309687500000001 -5.747914692968191 0.0
    vertex -1.7105070309329007 -6.410316931937951 0.0
  endloop
endfacet
facet normal 0.0 0.0 -1.0
  outer loop
    vertex -2.0982625399683252 -7.650767873552291 0.0
    vertex -1.7105070309329007 -6.410316931937951 0.0
    vertex -0.03805000000000298 -7.921999999999999 0.0
  endloop
endfacet
facet normal 0.0 0.0 -1.0
  outer loop
    vertex -0.03805000000000298 -7.921999999999999 0.0
    vertex -1.7105070309329007 -6.410316931937951 0.0
    vertex 0.005625000000000016 -6.636249999999999 0.0
  endloop
endfacet
facet normal 0.0 0.0 -1.0
  outer loop
    vertex -0.03805000000000298 -7.921999999999999 0.0
    vertex 0.005625000000000016 -6.636249999999999 0.0
    vertex 2.022162539968315 -7.650767873552293 0.0
  endloop
endfacet
facet normal 0.0 0.0 -1.0
  outer loop
    vertex 2.022162539968315 -7.650767873552293 0.0
    vertex 0.005625000000000016 -6.636249999999999 0.0
    vertex 1.7217570309328993 -6.410316931937952 0.0
  endloop
endfacet
facet normal 0.0 0.0 -1.0
  outer loop
    vertex 2.022162539968315 -7.650767873552293 0.0
    vertex 1.7217570309328993 -6.410316931937952 0.0
    vertex 3.320937499999999 -5.747914692968193 0.0
  endloop
endfacet
facet normal 0.0 0.0 -1.0
  outer loop
    vertex 2.022162539968315 -7.650767873552293 0.0
    vertex 3.320937499999999 -5.747914692968193 0.0
    vertex 3.9419749999999936 -6.855555515394319 0.0
  endloop
endfacet
facet normal 0.0 0.0 -1.0
  outer loop
    vertex 3.9419749999999936 -6.855555515394319 0.0
    vertex 3.320937499999999 -5.747914692968193 0.0
    vertex 4.694184901005047 -4.694184901005054 0.0
  endloop
endfacet
facet normal 0.0 0.0 -1.0
  outer loop
    vertex 3.9419749999999936 -6.855555515394319 0.0
    vertex 4.694184901005047 -4.694184901005054 0.0
    vertex 5.590555333583971 -5.590555333583977 0.0
  endloop
endfacet
facet normal 0.0 0.0 -1.0
  outer loop
    vertex 5.590555333583971 -5.590555333583977 0.0
    vertex 4.694184901005047 -4.694184901005054 0.0
    vertex 5.74791469296819 -3.320937500000003 0.0
  endloop
endfacet
facet normal 0.0 0.0 -1.0
  outer loop
    vertex 5.590555333583971 -5.590555333583977 0.0
    vertex 5.74791469296819 -3.320937500000003 0.0
    vertex 6.8555555153943155 -3.941974999999999 0.0
  endloop
endfacet
facet normal 0.0 0.0 -1.0
  outer loop
    vertex 6.8555555153943155 -3.941974999999999 0.0
    vertex 5.74791469296819 -3.320937500000003 0.0
    vertex 6.410316931937949 -1.721757030932907 0.0
  endloop
endfacet
facet normal 0.0 0.0 -1.0
  outer loop
    vertex 6.8555555153943155 -3.941974999999999 0.0
    vertex 6.410316931937949 -1.721757030932907 0.0
    vertex 6.636249999999999 -0.005625000000002065 0.0
  endloop
endfacet
facet normal -1.1815494139099785e-16 2.4326266968686106e-31 1.0
  outer loop
    vertex -5.971392269267287 -1.1647031756149848 2.9999999999999982
    vertex -5.485890733435545 -1.0588210687408945 3.0
    vertex -5.971392269267281 1.164703175614973 2.9999999999999982
  endloop
endfacet
facet normal -1.1815494139099785e-16 2.4326266968686106e-31 1.0
  outer loop
    vertex -5.485890733435545 -1.0588210687408945 3.0
    vertex -5.971392269267287 -1.1647031756149848 2.9999999999999982
    vertex -3.8011338221927153 -3.5495914911970368 2.9999999999999982
  endloop
endfacet
facet normal -1.1815494139099785e-16 2.4326266968686106e-31 1.0
  outer loop
    vertex -5.485890733435545 -1.0588210687408945 3.0
    vertex -3.8011338221927153 -3.5495914911970368 2.9999999999999982
    vertex -3.5583830542768418 -3.2723559010882157 3.0
  endloop
endfacet
facet normal -1.1815494139099785e-16 2.4326266968686106e-31 1.0
  outer loop
    vertex -5.971392269267281 1.164703175614973 2.9999999999999982
    vertex -5.4858907334355385 1.0588210687408846 3.0
    vertex -3.801133822192704 3.5495914911970408 2.9999999999999982
  endloop
endfacet
facet normal -1.1815494139099785e-16 2.4326266968686106e-31 1.0
  outer loop
    vertex -5.4858907334355385 1.0588210687408846 3.0
    vertex -5.971392269267281 1.164703175614973 2.9999999999999982
    vertex -5.485890733435545 -1.0588210687408945 3.0
  endloop
endfacet
facet normal -1.1815494139099785e-16 2.4326266968686106e-31 1.0
  outer loop
    vertex -3.801133822192704 3.5495914911970408 2.9999999999999982
    vertex -5.4858907334355385 1.0588210687408846 3.0
    vertex -3.558383054276834 3.272355901088218 3.0
  endloop
endfacet
facet normal -0.8978113394480227 0.08660064274209087 -0.4317813421573517
  outer loop
    vertex 5.747914692968195 3.3096874999999932 0.0
    vertex 3.985890733435544 5.639932965095795e-15 3.0
    vertex 3.9858907334355442 2.492945366717778 3.5
  endloop
endfacet
facet normal -0.8958560285478397 0.1654277262150003 -0.4124022835943411
  outer loop
    vertex 3.9858907334355442 4.98589073343555 4.499999999999999
    vertex 5.747914692968195 3.3096874999999932 0.0
    vertex 3.9858907334355442 2.492945366717778 3.5
  endloop
endfacet
facet normal 0.8209427309339365 -0.10333687497132335 0.5615821603273127
  outer loop
    vertex 6.855555515394322 4.018074999999995 0.0
    vertex 4.2975673442909175 2.717239903389555 3.4999999999999987
    vertex 4.297567344290917 5.639932965095795e-15 2.9999999999999982
  endloop
endfacet
facet normal 0.8249763141703194 -0.19519429666365484 0.5303897318085407
  outer loop
    vertex 4.2975673442909175 5.4344798067791045 4.499999999999998
    vertex 4.2975673442909175 2.717239903389555 3.4999999999999987
    vertex 6.855555515394322 4.018074999999995 0.0
  endloop
endfacet
facet normal -0.10093382415214434 3.2292919670776148e-15 0.9948931415694976
  outer loop
    vertex 4.2975673442909175 5.4344798067791045 4.499999999999998
    vertex -0.6308753751181296 5.4344798067791045 3.9999999999999982
    vertex -0.6308753751181292 4.98589073343555 3.9999999999999996
  endloop
endfacet
facet normal -0.10737128517247688 0.07460083237496809 0.9914162208322862
  outer loop
    vertex 4.2975673442909175 5.4344798067791045 4.499999999999998
    vertex -0.6308753751181292 4.98589073343555 3.9999999999999996
    vertex 3.9858907334355442 4.98589073343555 4.499999999999999
  endloop
endfacet
facet normal 0.25879157058666347 -0.35961321588685113 0.8964961003556039
  outer loop
    vertex 4.2975673442909175 2.717239903389555 3.4999999999999987
    vertex 3.9858907334355442 4.98589073343555 4.499999999999999
    vertex 3.9858907334355442 2.492945366717778 3.5
  endloop
endfacet
facet normal 0.4451273609822792 -0.3092714368539694 0.8403646891982273
  outer loop
    vertex 4.2975673442909175 5.4344798067791045 4.499999999999998
    vertex 3.9858907334355442 4.98589073343555 4.499999999999999
    vertex 4.2975673442909175 2.717239903389555 3.4999999999999987
  endloop
endfacet
facet normal -0.8960642724985599 -0.16527132675659928 -0.412012388289163
  outer loop
    vertex 3.985890733435544 -2.492945366717765 3.5
    vertex 5.74791469296819 -3.320937500000003 0.0
    vertex 3.985890733435544 -4.985890733435536 4.499999999999999
  endloop
endfacet
facet normal -0.8979184899638007 -0.08655767145118534 -0.431567091996223
  outer loop
    vertex 3.985890733435544 5.639932965095795e-15 3.0
    vertex 5.74791469296819 -3.320937500000003 0.0
    vertex 3.985890733435544 -2.492945366717765 3.5
  endloop
endfacet
facet normal 0.823108066175219 0.19613283970416687 0.5329399784092681
  outer loop
    vertex 4.297567344290917 -2.717239903389543 3.4999999999999987
    vertex 4.297567344290917 -5.434479806779092 4.499999999999998
    vertex 6.8555555153943155 -3.941974999999999 0.0
  endloop
endfacet
facet normal 0.8199365512347226 0.10359817564449712 0.5630021935591734
  outer loop
    vertex 4.297567344290917 5.639932965095795e-15 2.9999999999999982
    vertex 4.297567344290917 -2.717239903389543 3.4999999999999987
    vertex 6.8555555153943155 -3.941974999999999 0.0
  endloop
endfacet
facet normal -0.1009338241521441 -2.5834335736620556e-15 0.9948931415694976
  outer loop
    vertex 4.297567344290917 -5.434479806779092 4.499999999999998
    vertex -0.6308753751181391 -4.985890733435536 3.9999999999999996
    vertex -0.6308753751181408 -5.434479806779092 3.9999999999999982
  endloop
endfacet
facet normal -0.10737128517247671 -0.0746008323749676 0.9914162208322864
  outer loop
    vertex 4.297567344290917 -5.434479806779092 4.499999999999998
    vertex 3.985890733435544 -4.985890733435536 4.499999999999999
    vertex -0.6308753751181391 -4.985890733435536 3.9999999999999996
  endloop
endfacet
facet normal 0.47230573843605755 0.3281547870662325 0.8180719559830212
  outer loop
    vertex 4.297567344290917 -5.434479806779092 4.499999999999998
    vertex 3.985890733435544 -2.492945366717765 3.5
    vertex 3.985890733435544 -4.985890733435536 4.499999999999999
  endloop
endfacet
facet normal 0.2412061821220048 0.335176801346532 0.9107557793092691
  outer loop
    vertex 4.297567344290917 -2.717239903389543 3.4999999999999987
    vertex 3.985890733435544 -2.492945366717765 3.5
    vertex 4.297567344290917 -5.434479806779092 4.499999999999998
  endloop
endfacet
facet normal 0.1401205703631989 0.19470962213328577 0.9708009007050853
  outer loop
    vertex 4.297567344290917 -2.717239903389543 3.4999999999999987
    vertex 3.985890733435544 5.639932965095795e-15 3.0
    vertex 3.985890733435544 -2.492945366717765 3.5
  endloop
endfacet
facet normal 4.713511533640113e-15 0.18097192329774006 0.9834882627555435
  outer loop
    vertex 4.297567344290917 5.639932965095795e-15 2.9999999999999982
    vertex 3.985890733435544 5.639932965095795e-15 3.0
    vertex 4.297567344290917 -2.717239903389543 3.4999999999999987
  endloop
endfacet
facet normal 4.509078384900735e-15 -0.19664967971021594 0.9804738158002332
  outer loop
    vertex 4.297567344290917 5.639932965095795e-15 2.9999999999999982
    vertex 3.9858907334355442 2.492945366717778 3.5
    vertex 3.985890733435544 5.639932965095795e-15 3.0
  endloop
endfacet
facet normal 0.12914379251525962 -0.17945644223633478 0.9752524115297808
  outer loop
    vertex 4.2975673442909175 2.717239903389555 3.4999999999999987
    vertex 3.9858907334355442 2.492945366717778 3.5
    vertex 4.297567344290917 5.639932965095795e-15 2.9999999999999982
  endloop
endfacet
facet normal -0.19997705007546737 0.17510227475597417 0.9640271639421772
  outer loop
    vertex -0.6308753751181408 -5.434479806779092 3.9999999999999982
    vertex -3.5583830542768418 -3.2723559010882157 3.0
    vertex -3.8011338221927153 -3.5495914911970368 2.9999999999999982
  endloop
endfacet
facet normal -0.32324900489764685 -0.0 0.9463139441182726
  outer loop
    vertex -0.6308753751181391 -4.985890733435536 3.9999999999999996
    vertex -3.5583830542768418 -3.2723559010882157 3.0
    vertex -0.6308753751181408 -5.434479806779092 3.9999999999999982
  endloop
endfacet
facet normal -0.1111293486485029 0.8441112070413196 0.5245250594740026
  outer loop
    vertex -0.6308753751181296 5.4344798067791045 3.9999999999999982
    vertex -1.0681562699841618 7.862483936776146 0.0
    vertex -2.0982625399683226 7.726867873552295 0.0
  endloop
endfacet
facet normal -0.1111293486485029 0.8441112070413196 0.5245250594740026
  outer loop
    vertex -1.0681562699841618 7.862483936776146 0.0
    vertex -0.6308753751181296 5.4344798067791045 3.9999999999999982
    vertex -0.038050000000001964 7.998100000000001 0.0
  endloop
endfacet
facet normal -0.19997705007546865 -0.17510227475597331 0.964027163942177
  outer loop
    vertex -0.6308753751181296 5.4344798067791045 3.9999999999999982
    vertex -3.801133822192704 3.5495914911970408 2.9999999999999982
    vertex -3.558383054276834 3.272355901088218 3.0
  endloop
endfacet
facet normal -0.323249004897647 -0.0 0.9463139441182726
  outer loop
    vertex -0.6308753751181292 4.98589073343555 3.9999999999999996
    vertex -0.6308753751181296 5.4344798067791045 3.9999999999999982
    vertex -3.558383054276834 3.272355901088218 3.0
  endloop
endfacet
endsolid imagingWell2_V11
